<svg width="97" height="127" viewBox="0 0 97 127" fill="none" xmlns="http://www.w3.org/2000/svg">
<path d="M32.6803 2.75695C36.6129 1.80121 40.5089 0.808706 41.3175 0.55139C42.2731 0.220556 44.5518 0.0367594 47.823 0C50.6163 0 54.5857 0.183797 56.6807 0.404353C58.7389 0.58815 61.275 1.10278 62.2673 1.50713C63.2965 1.87473 64.8401 2.3526 65.759 2.5364C66.6778 2.68343 68.5523 3.1613 69.9857 3.5289C71.4191 3.89649 73.4773 4.66844 74.58 5.25659C75.6826 5.84474 77.8511 6.98428 79.358 7.79298C80.9017 8.60169 82.8497 9.99855 83.7685 10.9543C84.6874 11.91 85.9738 13.6377 86.6353 14.814C87.2602 15.9536 87.9585 16.9828 88.179 17.0931C88.3995 17.2034 88.8038 17.9018 89.1346 18.6738C89.4654 19.4089 90.0167 20.6955 90.421 21.5042C90.7886 22.3129 91.1193 23.1584 91.1193 23.3422C91.1193 23.526 91.6339 24.5553 92.2955 25.5478C92.9571 26.577 93.6186 28.1209 93.7656 29.0399C93.8759 29.9589 94.1332 31.4293 94.2802 32.3482C94.4272 33.2672 94.6845 34.1862 94.8315 34.37C95.0153 34.5538 95.3461 36.4653 95.5666 38.5973C95.7504 40.7294 96.1914 43.7804 96.4855 45.3978C96.8162 47.3093 97 50.875 97 55.6169C97 60.4691 96.853 63.1158 96.559 63.6672C96.2649 64.2554 96.1547 66.2036 96.2282 69.659C96.3017 73.1511 96.1914 75.2832 95.8606 76.2757C95.6033 77.0844 94.5742 78.8121 93.6186 80.1354C92.6263 81.4587 91.8544 82.7821 91.8544 83.0761C91.8544 83.3702 91.6339 84.1054 91.3031 84.7303C91.0091 85.3552 90.7518 86.1272 90.7518 86.4948C90.7518 86.8256 90.6048 87.1932 90.3843 87.3035C90.1637 87.4138 89.9432 88.1122 89.8329 88.8841C89.7227 89.6193 89.3919 90.5751 89.0979 90.9794C88.8038 91.3838 88.5833 91.9719 88.5465 92.266C88.5465 92.5601 88.2158 93.8834 87.8115 95.2067C87.4072 96.5301 86.8191 98.1475 86.5251 98.8092C86.231 99.4341 85.9738 100.132 85.9738 100.353C85.9738 100.574 85.4592 101.75 84.7976 103C84.1728 104.286 83.1069 106.124 82.4821 107.154C81.8205 108.146 81.0119 109.249 80.6444 109.543C80.2769 109.837 79.6521 110.829 79.2478 111.748C78.8067 112.704 77.116 114.763 75.3151 116.527C73.5876 118.255 71.1986 120.424 69.9857 121.379C68.7728 122.298 66.3838 123.732 64.6564 124.541C62.8186 125.423 60.5399 126.232 59.1432 126.452C57.8201 126.636 55.9456 126.82 54.9165 126.82C53.9241 126.82 51.9027 126.452 50.506 126.011C49.1094 125.57 46.8674 124.688 45.5442 124.063C44.2211 123.401 41.5013 121.784 39.4798 120.424C37.4583 119.064 33.8196 116.086 31.3939 113.844C28.9681 111.565 26.2483 108.991 25.3294 108.036C24.3003 107.006 22.8669 104.764 21.5437 102.154C20.3309 99.8384 18.8975 97.4491 18.3094 96.8609C17.7213 96.2728 17.2435 95.6111 17.2435 95.3905C17.2068 95.17 16.4717 93.9937 15.5896 92.7439C14.6707 91.4573 13.9356 90.3177 13.9356 90.1707C13.9356 89.9869 13.5313 89.3988 13.0535 88.7738C12.6125 88.1489 11.8407 86.9359 11.3629 86.0169C10.8483 85.0979 10.2602 84.1054 9.96619 83.8113C9.70892 83.5173 9.45164 82.635 9.41488 81.8631C9.34137 80.7235 9.1576 80.4295 8.45927 80.2089C7.98147 80.0619 6.69508 78.9959 5.59245 77.8563C4.52658 76.68 3.53422 75.2832 3.42396 74.7318C3.27694 74.1436 2.98291 73.3717 2.72563 72.9673C2.46835 72.563 1.80677 70.9088 1.25546 69.2914C0.593888 67.4167 0.152838 65.2846 0.0425754 63.4099C-0.067687 61.7925 0.0425754 59.6972 0.299854 58.7415C0.557133 57.5284 0.593888 56.83 0.336609 56.5359C0.0793295 56.2051 0.0425754 53.154 0.189592 47.6034C0.336609 42.9349 0.557133 38.9649 0.70415 38.7811C0.851167 38.5973 1.18195 36.9432 1.43923 35.1052C1.65976 33.2672 2.10081 31.5395 2.35809 31.2455C2.65212 30.9514 2.9094 30.253 2.9094 29.7016C2.9094 29.1134 3.01966 28.5988 3.20343 28.5253C3.35045 28.4517 3.57097 27.8636 3.75474 27.2387C3.90176 26.6138 4.41632 25.5478 4.89412 24.9228C5.37193 24.2612 6.0335 23.1216 6.36429 22.4232C6.69508 21.7248 7.17288 20.8058 7.43016 20.4014C7.68744 19.9971 8.49603 18.7473 9.23111 17.6445C9.96619 16.5417 11.5466 14.6302 12.7228 13.3804C13.8989 12.1673 16.1041 10.2559 17.6111 9.15308C19.118 8.0503 20.6984 6.94752 21.1027 6.6902C21.507 6.46965 21.9848 6.17557 22.2053 6.06529C22.4258 5.99178 22.9772 5.73446 23.4917 5.5139C24.0063 5.33011 24.6679 4.99927 24.9619 4.81548C25.2559 4.63168 28.7476 3.7127 32.6803 2.75695Z" fill="black"/>
<path d="M57.8566 15.2552C58.2609 15.1081 60.3192 14.8508 62.4509 14.7038C64.5826 14.52 67.817 14.4465 69.618 14.4832C71.6762 14.52 73.4036 14.7773 74.2122 15.1449C74.9106 15.439 76.491 16.0271 77.7039 16.3947C79.5783 16.9828 80.0194 17.3137 80.7177 18.5635C81.1955 19.3722 81.8938 20.7323 82.2981 21.5778C82.7024 22.46 83.0332 23.379 83.0332 23.5995C83.0332 23.8568 83.511 24.9964 84.0991 26.0992C84.9077 27.6798 85.2017 28.8194 85.4222 31.4293C85.5693 33.2305 85.9 35.3993 86.1941 36.208C86.4881 37.0167 86.7086 38.7444 86.7086 40.0677C86.7086 41.3911 86.9659 43.1923 87.2599 44.1113C87.6275 45.1405 87.8113 47.052 87.8113 49.2576C87.8113 51.5857 88.044 53.6074 88.5096 55.3229C88.9139 56.7197 89.3549 58.7047 89.5387 59.6972C89.6857 60.653 89.943 61.5352 90.1268 61.6087C90.2738 61.6822 90.384 63.1894 90.384 64.9538C90.384 66.755 90.5311 68.8135 90.6781 69.5855C90.8251 70.3207 91.0456 70.9456 91.2294 70.9456C91.3764 70.9456 92.2585 70.1736 94.8313 67.4534L94.721 71.6808C94.574 75.7978 94.5373 75.9449 93.2876 77.7461C92.5893 78.7386 91.4499 80.356 90.7516 81.3117C89.9798 82.341 88.9139 83.26 88.0685 83.6276C87.0394 84.0319 86.7454 84.326 86.9292 84.8039C87.0762 85.1715 87.2599 86.458 87.3335 87.6711C87.4437 89.0312 87.2599 90.7956 86.8924 92.266C86.5616 93.5893 86.1573 95.2435 86.0103 95.9419C85.8265 96.6404 85.165 98.4783 84.5034 99.9855C83.8418 101.493 83.0332 103.147 82.7392 103.661C82.4084 104.176 80.9382 106.492 79.4313 108.808C77.7406 111.344 75.5721 114.138 73.8814 115.792C72.3378 117.336 70.1693 119.247 69.0666 120.056C67.964 120.902 66.1998 122.004 65.2075 122.519C64.1783 123.034 62.6347 123.769 61.7158 124.173C60.7234 124.614 58.8122 125.019 56.9378 125.166C54.3282 125.349 53.4094 125.276 51.4247 124.614C50.1015 124.21 48.4843 123.622 47.8227 123.328C47.1979 123.034 46.0218 122.482 45.25 122.151C44.5149 121.784 43.3755 121.196 42.7874 120.755C42.1626 120.35 40.9497 119.468 40.1044 118.806C39.259 118.181 38.4504 117.63 38.2667 117.63C38.1196 117.63 37.017 116.784 35.8409 115.718C34.628 114.652 32.4228 112.557 30.9526 111.087C29.4824 109.653 28.0123 108.44 27.7182 108.44C27.4242 108.44 27.1669 108.293 27.1669 108.073C27.1669 107.852 26.8729 107.411 26.5053 107.043C26.1746 106.712 25.4762 105.83 24.9617 105.132C24.4839 104.433 23.4547 102.559 22.6829 100.978C21.9111 99.4341 20.7349 97.5226 20.0734 96.7874C19.3383 95.9419 18.6399 94.5451 18.2357 93.038C17.8314 91.7146 17.3903 89.2885 17.2065 87.6711C17.0228 86.0537 16.7287 83.8114 16.5817 82.7086C16.3244 80.7603 16.2877 80.6868 15.038 80.4663C14.3397 80.356 13.2738 80.0251 12.649 79.6943C12.0242 79.4002 10.8848 79.0326 10.0762 78.8856C8.97361 78.7386 8.16502 78.2239 6.87862 76.9374C5.88626 75.9449 5.00416 74.695 4.8939 74.0701C4.74688 73.4452 4.19557 72.0484 3.64426 70.9456C3.09295 69.8428 2.35786 67.8578 1.99032 66.5345C1.54927 64.8803 1.40226 63.3732 1.54927 61.5719C1.62278 60.1751 1.99032 58.3004 2.32111 57.4181C2.79891 56.1316 3.09295 55.8375 4.08531 55.6537C4.85715 55.5434 5.59223 55.6537 6.03328 55.9845C6.43757 56.2786 7.31967 57.0505 7.94449 57.749C8.60607 58.4474 9.81895 59.9178 10.6275 61.0206C11.4361 62.1233 12.5755 64.0716 13.2003 65.3214C13.7884 66.608 14.45 67.7108 14.6705 67.821C14.891 67.9313 15.4423 68.8871 15.9201 69.9163C16.3612 70.9823 16.8758 72.1586 17.0228 72.4895C17.133 72.8571 17.5006 73.1511 17.7946 73.1511C18.0886 73.1511 18.8605 72.4527 19.4485 71.5705C20.0734 70.725 20.6247 69.5855 20.7349 68.9973C20.8452 68.4459 21.0657 67.9313 21.2862 67.821C21.5068 67.7108 21.6538 67.3799 21.6538 67.0858C21.6538 66.7918 21.8743 65.9831 22.1316 65.3214C22.4256 64.6965 23.0137 62.638 23.4915 60.8368C24.0796 58.5209 24.4471 55.6904 24.6676 51.4631C24.8514 48.118 25.0352 44.7362 25.0719 43.8907C25.1454 42.4571 25.2189 42.3468 27.1302 41.5013C28.6371 40.8397 29.7765 39.8839 31.9082 37.4578C33.4519 35.7301 35.0323 33.8922 35.3998 33.4143C35.8041 32.9364 36.576 31.6498 37.164 30.5838C37.7154 29.5545 38.1932 28.4518 38.1932 28.1945C38.1932 27.9739 38.7445 26.7241 39.406 25.4743C40.3617 23.6363 40.8762 23.0481 42.2361 22.3865C43.155 21.9454 44.1473 21.4307 44.4414 21.2469C44.7354 21.0999 45.25 20.8426 45.544 20.7323C45.838 20.622 46.9039 20.1074 47.933 19.6663C48.9254 19.1884 50.8366 18.3062 52.1597 17.718C53.4829 17.1299 55.1368 16.3947 55.8351 16.0639C56.5335 15.7698 57.4523 15.4022 57.8566 15.2552Z" fill="white"/>
<path d="M66.7513 46.0595C68.0009 44.6994 69.1036 43.9274 70.537 43.4128C72.0807 42.8247 73.2568 42.6776 75.6826 42.7511C77.41 42.8247 79.1375 43.0452 79.5417 43.2658C79.946 43.4863 80.9752 43.8539 81.8573 44.0745C82.8496 44.3318 84.0258 45.1037 85.2386 46.2433C86.231 47.199 87.0763 48.265 87.0763 48.6326C87.0763 48.9635 86.8558 49.3678 86.6353 49.4781C86.378 49.5884 85.4959 49.2943 84.6873 48.8899C83.8787 48.4488 81.9675 47.7504 80.4606 47.3828C78.9537 46.9785 76.8955 46.6844 75.8663 46.6844C74.7637 46.6844 73.1465 47.052 71.8234 47.5666C70.6105 48.0445 68.6258 48.4856 67.4496 48.5591C66.2 48.6326 65.2076 48.5591 65.1341 48.3386C65.0606 48.118 65.7957 47.1255 66.7513 46.0595Z" fill="black"/>
<path d="M26.3218 46.5006C26.5055 46.2065 27.8654 45.2875 29.3723 44.5156L32.1289 43.082L36.9805 43.0452C40.9867 43.0084 42.1628 43.1187 43.4492 43.7069C44.2945 44.0745 45.2869 44.4788 45.6544 44.6259C45.9852 44.7361 46.6835 45.5081 47.1981 46.3168C47.7127 47.1255 48.117 48.0445 48.117 48.3386C48.117 48.6326 47.9699 48.9635 47.7494 49.0737C47.5289 49.184 46.6835 49.037 45.8382 48.7429C44.9561 48.4488 43.4492 47.971 42.4201 47.6401C41.2439 47.2725 39.2592 47.0887 36.9069 47.0887C34.8855 47.0887 32.4964 47.2358 31.5776 47.4563C30.6587 47.6401 29.1518 47.9342 28.1962 48.0812C26.726 48.3018 26.432 48.2283 26.285 47.7136C26.138 47.3461 26.1747 46.7947 26.3218 46.5006Z" fill="black"/>
<path d="M32.6802 50.6176C34.0034 49.956 35.5838 49.4781 37.2745 49.3311C38.6711 49.184 40.6926 49.1105 41.685 49.184C42.7141 49.2575 44.368 49.5516 45.3604 49.8089C46.3895 50.103 47.7494 50.6912 48.411 51.0955C49.0726 51.4999 49.6974 52.2718 49.8076 52.8232C49.9547 53.4113 49.9179 54.2568 49.7341 54.7714C49.5136 55.3596 48.6683 56.058 47.3819 56.7197C46.0587 57.3814 44.4415 57.8225 42.6038 58.0063C41.0969 58.1901 38.6711 58.1901 37.2745 58.0063C35.6573 57.8225 33.9299 57.3446 32.6802 56.7197C31.2836 56.0213 30.5485 55.3596 30.2912 54.6612C30.0462 53.9995 30.0462 53.3378 30.2912 52.6762C30.5362 52.0145 31.3326 51.3283 32.6802 50.6176Z" fill="black"/>
<path d="M67.1556 50.875C67.8907 50.5441 69.5079 50.1765 70.7208 50.0295C71.9336 49.8825 73.6611 49.8457 74.5799 49.9192C75.4988 49.9927 77.1527 50.3236 78.2554 50.6176C79.4682 50.9485 80.6811 51.6101 81.3059 52.235C82.0043 52.9702 82.2983 53.6687 82.2983 54.5876C82.2983 55.5802 82.041 56.0948 81.1957 56.7932C80.6076 57.3078 79.1375 57.9695 77.9981 58.3003C76.8219 58.6312 74.6167 58.8885 73.1098 58.8885C71.6029 58.8885 69.4344 58.6312 68.3317 58.3371C67.1556 58.0063 65.8325 57.3078 65.1341 56.6462C64.2888 55.8375 63.9212 55.1758 63.9212 54.4039C63.9212 53.7054 64.252 52.9335 64.8401 52.3821C65.3547 51.8675 66.3838 51.2058 67.1556 50.875Z" fill="black"/>
<path d="M34.0769 59.3664C33.011 59.0355 32.3127 58.5944 32.3127 58.2636C32.3127 57.9695 32.3862 57.7122 32.4964 57.7122C32.6067 57.7122 33.305 57.9695 34.0769 58.3003C34.812 58.5944 36.8334 59.0355 38.5609 59.2193C41.2807 59.5502 42.0893 59.4766 44.6253 58.8517C46.2425 58.4474 47.8597 58.0063 48.2272 57.896C48.6315 57.7857 48.852 57.896 48.852 58.2636C48.852 58.6679 47.8597 59.0355 45.4707 59.5869C42.7509 60.2486 41.4277 60.3589 38.9284 60.1751C37.201 60.028 35.0325 59.6972 34.0769 59.3664Z" fill="black"/>
<path d="M66.6043 59.6972C65.9427 59.4031 65.4649 59.0355 65.5752 58.8517C65.6487 58.6312 66.3838 58.7047 67.3026 58.9988C68.1847 59.2928 70.537 59.6972 72.5585 59.8442C75.3885 60.1016 76.6014 60.0648 77.8878 59.6604C78.8067 59.3664 79.6888 58.9988 79.9093 58.815C80.0931 58.5944 80.5341 58.4474 80.9017 58.4474C81.2692 58.4474 81.5632 58.5577 81.5632 58.7047C81.5632 58.8885 81.1222 59.2193 80.5709 59.5134C80.0196 59.7707 78.8802 60.2486 78.0716 60.5059C76.8587 60.947 75.8296 60.9838 72.1909 60.6529C69.7651 60.3956 67.2291 59.9913 66.6043 59.6972Z" fill="black"/>
<path d="M64.7666 70.725C64.2888 70.0266 63.9947 69.2914 64.105 69.1076C64.252 68.887 64.5093 68.74 64.7666 68.7032C65.0239 68.7032 65.7222 69.3282 66.3103 70.1001C66.8983 70.872 67.6334 71.9013 67.8907 72.4159C68.148 72.9306 68.3317 73.8863 68.3317 74.5112C68.3317 75.1729 68.1847 75.7243 67.9642 75.7243C67.7437 75.7243 67.5967 75.2096 67.5967 74.6215C67.5967 73.8496 67.3026 73.2982 66.6043 72.7468C66.0162 72.3057 65.2076 71.4234 64.7666 70.725Z" fill="black"/>
<path d="M44.0005 72.5262C43.927 71.8278 44.2945 71.1661 45.1766 70.3207C45.875 69.659 46.6468 69.1076 46.9041 69.1076C47.1614 69.1076 47.3819 69.3282 47.3819 69.5487C47.3819 69.806 46.9776 70.4309 46.463 70.9456C45.9485 71.4602 45.5442 72.1586 45.5442 72.4895C45.5442 72.857 46.1322 73.482 46.8306 73.8863C47.6392 74.3274 48.117 74.9156 48.117 75.3567C48.117 75.761 47.9699 76.1654 47.7494 76.2757C47.5289 76.3859 47.0511 76.1286 46.6468 75.7243C46.2425 75.3199 45.6544 74.9891 45.3604 74.9891C45.0664 74.9891 44.6621 74.6583 44.4415 74.2539C44.221 73.8496 44.0372 73.0776 44.0005 72.5262Z" fill="black"/>
<path d="M49.7709 74.9891C49.6239 74.4377 49.7341 73.9598 50.0282 73.8128C50.2855 73.6658 51.1308 73.5187 51.9026 73.5187C53.0053 73.5187 53.4831 73.7393 54.3652 74.8053C55.2473 75.7978 55.431 76.3859 55.3943 77.452C55.284 78.7753 55.2105 78.8488 53.9241 78.9223C52.6745 79.0326 52.3804 78.8488 51.2411 77.452C50.5427 76.6065 49.8812 75.5037 49.7709 74.9891Z" fill="black"/>
<path d="M62.4143 76.4595C62.3776 76.2757 63.0024 75.6875 63.7742 75.1729C64.5828 74.6583 65.5017 74.2539 65.8692 74.2539C66.2 74.2539 66.5675 74.5112 66.6778 74.8053C66.7881 75.0994 66.4205 76.0184 65.8692 76.8271C65.1709 77.8196 64.5828 78.2974 64.0315 78.2974C63.5537 78.2974 63.0391 77.9666 62.8186 77.5622C62.5981 77.1579 62.4143 76.68 62.4143 76.4595Z" fill="black"/>
<path d="M51.1676 84.0687C51.3146 82.488 51.6086 81.3117 52.0129 80.8706C52.3437 80.4662 52.8582 80.1354 53.1155 80.1354C53.4096 80.1354 53.6301 80.356 53.6301 80.5765C53.5933 80.8338 53.3728 81.4587 53.0788 81.9734C52.7847 82.488 52.5642 83.5173 52.5275 84.2525C52.5275 85.0244 52.748 85.9801 53.0053 86.3845C53.336 86.9359 53.336 87.1932 53.0053 87.5608C52.6377 87.9284 52.3804 87.8916 51.7556 87.3035C51.0573 86.6418 50.9838 86.2742 51.1676 84.0687Z" fill="black"/>
<path d="M72.8525 81.2382C72.6687 81.2749 72.779 81.0176 73.073 80.6868C73.3303 80.3927 73.8449 80.1354 74.1756 80.1354C74.5064 80.1354 75.4988 80.356 76.4176 80.65C77.704 81.0911 78.2186 81.4955 78.7332 82.488C79.0639 83.2232 79.358 84.2157 79.358 84.7303C79.358 85.245 79.2845 85.9066 79.1742 86.2007C79.0639 86.4948 78.8434 86.7521 78.6229 86.7521C78.4024 86.7521 78.2554 86.2007 78.2554 85.539C78.2554 84.8774 77.8511 83.8481 77.3365 83.1497C76.7117 82.341 75.9766 81.8999 75.0577 81.7161C74.2859 81.569 73.5508 81.3852 73.4038 81.3485C73.22 81.2749 72.9995 81.2382 72.8525 81.2382Z" fill="black"/>
<path d="M34.1871 84.62C34.3709 84.0687 35.106 83.0762 35.7308 82.4145C36.6864 81.422 37.1275 81.2382 38.1933 81.3117C39.0509 81.3852 39.4797 81.6058 39.4797 81.9734C39.4797 82.2674 39.0754 82.5615 38.5609 82.635C38.0463 82.7086 37.2745 83.1129 36.7967 83.554C36.3556 83.9951 35.8043 84.9509 35.5838 85.6493C35.3633 86.3477 35.2898 87.4873 35.4 88.1122C35.5103 88.8106 35.4735 89.3988 35.253 89.509C35.0325 89.6193 34.6282 89.4723 34.3342 89.215C33.9666 88.9576 33.7461 88.1857 33.7828 87.1932C33.7828 86.3477 33.9666 85.2082 34.1871 84.62Z" fill="black"/>
<path d="M56.4969 83.7011C56.4601 83.0394 56.6439 82.3042 56.938 82.0469C57.232 81.7896 57.5995 81.6058 57.7465 81.6058C57.8936 81.6058 58.0406 82.1939 58.0406 82.8924C58.0406 83.6643 58.4816 84.9141 59.1432 86.0169C59.7313 87.0094 60.1723 88.0019 60.0621 88.2225C59.9518 88.4063 59.621 88.5901 59.327 88.5901C59.0329 88.5901 58.2611 87.7446 57.673 86.7521C57.0482 85.7228 56.5337 84.3627 56.4969 83.7011Z" fill="black"/>
<path d="M39.3695 89.362C39.3327 87.6343 39.3695 86.0537 39.443 85.7596C39.5532 85.5023 39.884 85.2817 40.2148 85.2817C40.5089 85.2817 41.3174 85.7596 41.979 86.3477C42.6038 86.8991 43.5594 87.524 44.074 87.6711C44.5886 87.8181 45.3236 88.1857 45.7279 88.443C46.1322 88.7371 46.6835 88.9577 46.9408 88.9577C47.1614 88.9577 47.9332 89.1782 48.5948 89.4723C49.2196 89.7664 50.2487 90.0972 50.8735 90.2442C51.4983 90.3545 53.042 90.6486 54.3652 90.8324C55.6883 91.0529 58.6654 91.1632 60.9809 91.0897C63.9212 90.9794 65.6119 90.7589 66.494 90.3177C67.1924 89.9869 68.0377 89.5458 68.3317 89.3988C68.6258 89.215 69.2873 88.8474 69.8019 88.5901C70.3165 88.296 71.3823 87.7446 72.2277 87.3402C73.0363 86.8991 73.9919 86.3477 74.3227 86.0537C74.8005 85.6493 74.9842 85.6493 75.3885 86.0537C75.6458 86.3477 76.0501 86.9726 76.2706 87.4873C76.5279 88.0019 76.8219 89.215 76.969 90.2442C77.1895 91.8616 77.1527 92.0087 76.7117 91.5308C76.4176 91.2367 75.9031 90.2075 74.9475 87.4873L73.0363 88.443C71.9704 88.9944 71.0148 89.5458 70.9045 89.6928C70.7943 89.8031 69.6549 90.4648 65.9427 92.4498H59.1432C53.0788 92.413 52.0864 92.3395 49.9547 91.6043C48.6315 91.1632 46.6468 90.428 45.5442 89.9869C44.4415 89.509 42.9346 88.7739 40.9499 87.4873L40.7661 89.9502C40.6191 91.8249 40.4353 92.4498 40.031 92.4498C39.59 92.4498 39.443 91.8249 39.3695 89.362Z" fill="black"/>
<path d="M60.5399 118.88C62.3041 118.365 64.4726 117.556 65.3914 117.079C66.3103 116.601 67.3761 116.27 67.7437 116.27C68.148 116.307 68.5155 116.49 68.589 116.711C68.6258 116.895 68.148 117.446 67.4864 117.887C66.8616 118.292 64.399 119.284 62.0835 120.019C58.4081 121.232 57.526 121.379 55.284 121.232C53.2993 121.122 51.7556 120.681 48.4845 119.321C46.169 118.328 44.1108 117.409 43.8902 117.226C43.6697 117.042 43.633 116.784 43.8167 116.637C43.9637 116.454 45.2869 116.748 46.7571 117.226C48.1905 117.703 50.4325 118.475 51.7189 118.953C52.9685 119.431 54.7327 119.836 55.6516 119.836C56.5704 119.836 58.7389 119.394 60.5399 118.88Z" fill="black"/>
<path d="M31.7986 52.4556C32.2029 52.088 33.4158 51.4998 34.5184 51.0955C35.915 50.5809 37.5322 50.3971 39.8477 50.3603C41.6487 50.3603 43.4864 50.4706 43.8907 50.5809C44.5523 50.7279 44.6258 51.022 44.5155 53.0437C44.442 54.845 44.5523 55.4699 45.0668 55.9477C45.6916 56.5359 45.6549 56.6094 43.8907 56.83C42.8983 56.977 40.4725 57.0138 38.5613 56.9035C35.9518 56.7932 34.6286 56.5726 33.3422 55.9477C32.0191 55.3596 31.5045 54.8817 31.3575 54.1098C31.2105 53.4113 31.3208 52.9335 31.7986 52.4556Z" fill="white"/>
<path d="M65.8329 52.9335C66.3107 52.4924 67.4133 51.941 68.3322 51.6469C69.251 51.3896 71.3828 51.1323 73.1102 51.1323C74.8377 51.0955 76.7489 51.2425 78.4396 51.8307L78.2558 57.3446L76.5284 57.5651C75.536 57.7122 73.3675 57.7489 71.6401 57.6387C69.2143 57.5284 68.1484 57.3078 66.862 56.5726C65.6124 55.911 65.1713 55.4331 65.1346 54.6612C65.0611 53.9995 65.3183 53.4113 65.8329 52.9335Z" fill="white"/>
</svg>
